<svg width="22" height="16" viewBox="0 0 22 16" fill="none" xmlns="http://www.w3.org/2000/svg">
<path d="M13.9206 6.29264L13.5414 5.3934C13.5414 5.3934 14.4212 3.40812 14.3448 3.33174L13.1796 2.19363C13.0984 2.11516 11.1117 3.02065 11.1117 3.02065L10.1951 2.65054C10.1951 2.65054 9.38338 0.638184 9.27367 0.638184H7.62795C7.51407 0.638184 6.76551 2.65609 6.76551 2.65609L5.84961 3.0276C5.84961 3.0276 3.82059 2.16516 3.74281 2.23946L2.57831 3.38035C2.49776 3.4602 3.42478 5.4052 3.42478 5.4052L3.04703 6.30444C3.04703 6.30444 0.990234 7.09536 0.990234 7.20368V8.81607C0.990234 8.92717 3.05189 9.66115 3.05189 9.66115L3.43034 10.5576C3.43034 10.5576 2.54984 12.5443 2.62692 12.6207L3.79281 13.7602C3.87128 13.8372 5.85933 12.9304 5.85933 12.9304L6.77662 13.3032C6.77662 13.3032 7.58629 15.3142 7.69739 15.3142H9.34311C9.45629 15.3142 10.2069 13.2963 10.2069 13.2963L11.1235 12.9248C11.1235 12.9248 13.1498 13.7872 13.2282 13.7129L14.3934 12.572C14.4733 12.495 13.5456 10.5486 13.5456 10.5486L13.9247 9.64934C13.9247 9.64934 15.9822 8.85565 15.9822 8.74732V7.13633C15.9829 7.02592 13.9206 6.29264 13.9206 6.29264ZM8.48622 10.3271C7.1634 10.3271 6.08431 9.27159 6.08431 7.97516C6.08431 6.68011 7.1634 5.62463 8.48622 5.62463C9.81113 5.62463 10.8881 6.68011 10.8881 7.97516C10.8881 9.27229 9.81113 10.3271 8.48622 10.3271Z" fill="#999999"/>
<path d="M20.8069 4.41512L20.8166 3.94571C20.8166 3.94571 21.5929 3.24715 21.5742 3.19854L21.2867 2.47082C21.2652 2.42082 20.2146 2.42777 20.2146 2.42777L19.8854 2.08612C19.8854 2.08612 19.9257 1.04314 19.8764 1.02162L19.1535 0.697335C19.1021 0.67442 18.3779 1.41603 18.3779 1.41603L17.9029 1.39728C17.9029 1.39728 17.1814 0.620257 17.1328 0.639006L16.3961 0.911903C16.3468 0.929262 16.3711 1.96599 16.3711 1.96599L16.0274 2.2875C16.0274 2.2875 14.9698 2.23056 14.9483 2.27778L14.6309 2.98606C14.6087 3.03606 15.3705 3.76309 15.3705 3.76309L15.3607 4.22972C15.3607 4.22972 14.5851 4.92967 14.6039 4.97828L14.892 5.7067C14.9129 5.7553 15.9635 5.74767 15.9635 5.74767L16.2919 6.0907C16.2919 6.0907 16.2537 7.13368 16.303 7.1552L17.0259 7.4781C17.0759 7.50101 17.8008 6.76356 17.8008 6.76356L18.2765 6.77954C18.2765 6.77954 18.9966 7.55656 19.0466 7.5392L19.7813 7.26631C19.8319 7.24895 19.8076 6.21083 19.8076 6.21083L20.1507 5.8921C20.1507 5.8921 21.2082 5.94626 21.2305 5.89904L21.5478 5.19076C21.5679 5.14215 20.8069 4.41512 20.8069 4.41512ZM19.1452 4.55886C18.8903 5.12827 18.2098 5.38103 17.6266 5.12063C17.046 4.86162 16.7794 4.18597 17.0342 3.61518C17.2877 3.04717 17.9703 2.7958 18.5508 3.0548C19.132 3.31659 19.3986 3.99085 19.1452 4.55886Z" fill="#999999"/>
</svg>
