<?xml version="1.0" encoding="utf-8"?>
<!-- Generator: Adobe Illustrator 23.0.0, SVG Export Plug-In . SVG Version: 6.00 Build 0)  -->
<svg version="1.1" xmlns="http://www.w3.org/2000/svg" xmlns:xlink="http://www.w3.org/1999/xlink" x="0px" y="0px"
	 viewBox="0 0 375 175" style="enable-background:new 0 0 375 175;" xml:space="preserve">
<style type="text/css">
	.st0{fill:#1CE554;}
	.st1{fill:none;stroke:#07841B;stroke-width:10;stroke-linecap:round;stroke-miterlimit:10;}
	.st2{fill:none;stroke:#07841B;stroke-width:9;stroke-linecap:round;stroke-miterlimit:10;}
	.st3{fill:none;stroke:#07841B;stroke-width:5;stroke-linecap:round;stroke-miterlimit:10;}
	.st4{fill:none;stroke:#07841B;stroke-width:8;stroke-linecap:round;stroke-miterlimit:10;}
	.st5{fill:#0E724C;}
	.st6{fill:#2BC16B;}
	.st7{fill:#0F0F0F;}
	.st8{fill:#303030;}
	.st9{fill:#E5E5E5;}
	.st10{fill:#23B77B;}
	.st11{fill:#E8E8E8;}
	.st12{fill:#51B97B;}
	.st13{fill:none;stroke:#000000;stroke-width:10;stroke-linecap:round;stroke-miterlimit:10;}
	.st14{fill:none;stroke:#000000;stroke-width:9;stroke-linecap:round;stroke-miterlimit:10;}
	.st15{fill:none;stroke:#000000;stroke-width:5;stroke-linecap:round;stroke-miterlimit:10;}
	.st16{fill:none;stroke:#000000;stroke-width:8;stroke-linecap:round;stroke-miterlimit:10;}
	.st17{fill:none;stroke:#FFFFFF;stroke-width:10;stroke-linecap:round;stroke-miterlimit:10;}
	.st18{fill:none;stroke:#FFFFFF;stroke-width:9;stroke-linecap:round;stroke-miterlimit:10;}
	.st19{fill:none;stroke:#FFFFFF;stroke-width:5;stroke-linecap:round;stroke-miterlimit:10;}
	.st20{fill:none;stroke:#FFFFFF;stroke-width:8;stroke-linecap:round;stroke-miterlimit:10;}
	.st21{fill:none;stroke:#0E724C;stroke-width:10;stroke-linecap:round;stroke-miterlimit:10;}
	.st22{fill:none;stroke:#0E724C;stroke-width:9;stroke-linecap:round;stroke-miterlimit:10;}
	.st23{fill:none;stroke:#0E724C;stroke-width:5;stroke-linecap:round;stroke-miterlimit:10;}
	.st24{fill:none;stroke:#0E724C;stroke-width:8;stroke-linecap:round;stroke-miterlimit:10;}
	.st25{fill:#EAEAEA;}
	.st26{fill:none;stroke:#079B5B;stroke-width:26;stroke-linecap:round;stroke-linejoin:round;stroke-miterlimit:10;}
	.st27{fill:none;stroke:#079B5B;stroke-width:13;stroke-linecap:round;stroke-miterlimit:10;}
	.st28{fill:none;stroke:#079B5B;stroke-width:20;stroke-linecap:round;stroke-miterlimit:10;}
	.st29{fill:none;stroke:#079B5B;stroke-width:16;stroke-linecap:round;stroke-miterlimit:10;}
	.st30{fill:none;stroke:#0AA562;stroke-width:16;stroke-linecap:round;stroke-miterlimit:10;}
</style>
<g id="Camada_4">
	<path class="st0" d="M2678.44-662h-355.87c-30.69,0-55.56-24.88-55.56-55.56v-355.87c0-30.69,24.88-55.56,55.56-55.56h355.87
		c30.69,0,55.56,24.88,55.56,55.56v355.87C2734-686.88,2709.12-662,2678.44-662z"/>
	<path class="st0" d="M3225.44-664h-355.87c-30.69,0-55.56-24.88-55.56-55.56v-355.87c0-30.69,24.88-55.56,55.56-55.56h355.87
		c30.69,0,55.56,24.88,55.56,55.56v355.87C3281-688.88,3256.12-664,3225.44-664z"/>
</g>
<g id="Camada_3">
	<path class="st1" d="M1992-692c0,0,126-88,67-233c-33-75-112-174-112-174h-4c0,0-79.27,99-112.27,174c-59,145,67,233,67,233"/>
	<g>
		<circle class="st2" cx="1945" cy="-707" r="17.5"/>
		<line class="st2" x1="1944.5" y1="-724.5" x2="1944.5" y2="-1044.5"/>
		<circle class="st3" cx="1944.75" cy="-1051.25" r="4.75"/>
	</g>
	<g>
		<polyline class="st4" points="1945,-769.15 2003,-769 2003,-795 		"/>
		<polyline class="st4" points="1948,-748 2020,-747.94 2020,-789 		"/>
		<circle class="st3" cx="2002.75" cy="-801.25" r="4.75"/>
		<circle class="st3" cx="2019.75" cy="-795.25" r="4.75"/>
	</g>
	<g>
		<polyline class="st4" points="1944.5,-779.15 1886.5,-779 1886.5,-805 		"/>
		<polyline class="st4" points="1941.5,-758 1869.5,-757.94 1869.5,-799 		"/>
		<circle class="st3" cx="1886.75" cy="-811.25" r="4.75"/>
		<circle class="st3" cx="1869.75" cy="-805.25" r="4.75"/>
	</g>
	<g>
		<polyline class="st4" points="1948,-814 1981,-814 1991,-824 2020,-824 		"/>
		<circle class="st3" cx="2026.75" cy="-824.25" r="4.75"/>
		<polyline class="st4" points="1948,-836 1981,-836 1991,-846 2020,-846 		"/>
		<circle class="st3" cx="2026.75" cy="-846.25" r="4.75"/>
	</g>
	<g>
		<polyline class="st4" points="1943.5,-841 1910.5,-841 1900.5,-851 1871.5,-851 		"/>
		<circle class="st3" cx="1864.75" cy="-851.25" r="4.75"/>
		<polyline class="st4" points="1943.5,-864 1910.5,-864 1900.5,-874 1855,-874 		"/>
		<circle class="st3" cx="1848.75" cy="-874.25" r="4.75"/>
	</g>
	<g>
		<circle class="st3" cx="2047.75" cy="-886.25" r="4.75"/>
		<circle class="st3" cx="2035.75" cy="-915.25" r="4.75"/>
		<circle class="st3" cx="2024.75" cy="-933.25" r="4.75"/>
		<line class="st4" x1="1947.5" y1="-885.59" x2="2041.5" y2="-885.59"/>
		<polyline class="st4" points="1947,-902.1 2023.5,-902.1 2031.7,-910.3 		"/>
		<polyline class="st4" points="1947,-919.94 2011.5,-919.94 2020.28,-928.72 		"/>
	</g>
	<g>
		<g>
			<circle class="st3" cx="1866.25" cy="-943.25" r="4.75"/>
			<circle class="st3" cx="1877.25" cy="-974.25" r="4.75"/>
			<circle class="st3" cx="1888.25" cy="-994.25" r="4.75"/>
			<line class="st4" x1="1945" y1="-942.59" x2="1872.5" y2="-942.59"/>
			<polyline class="st4" points="1945,-961.1 1889.5,-961.1 1881.3,-969.3 			"/>
			<polyline class="st4" points="1892.72,-989.72 1901.5,-980.94 1945,-980.94 			"/>
		</g>
	</g>
	<g>
		<path class="st5" d="M16.15,1263.15c-9.53,0-18.36-1.33-26.51-4c-8.15-2.66-15.25-6.66-21.31-11.98s-10.82-12.02-14.28-20.09
			c-3.47-8.07-5.21-17.51-5.21-28.33c0-10.65,1.73-19.81,5.21-27.48c3.47-7.66,8.03-13.96,13.68-18.88
			c5.65-4.92,12.11-8.55,19.37-10.9c7.26-2.34,14.69-3.51,22.27-3.51c8.55,0,16.34,1.29,23.36,3.87
			c7.02,2.58,13.07,6.14,18.16,10.65c5.08,4.52,9.04,9.93,11.86,16.22c2.82,6.29,4.24,13.16,4.24,20.58c0,5.49-1.54,9.68-4.6,12.59
			c-3.07,2.91-7.35,4.76-12.83,5.57l-59.8,8.96c1.77,5.33,5.41,9.32,10.9,11.98c5.48,2.66,11.78,4,18.88,4
			c6.62,0,12.87-0.85,18.76-2.54c5.89-1.7,10.69-3.67,14.41-5.93c2.58,1.62,4.76,3.87,6.54,6.78c1.77,2.91,2.66,5.97,2.66,9.2
			c0,7.26-3.39,12.67-10.17,16.22c-5.17,2.75-10.98,4.6-17.43,5.57C27.85,1262.66,21.8,1263.15,16.15,1263.15z M9.37,1168
			c-3.87,0-7.23,0.65-10.05,1.94c-2.83,1.29-5.13,2.95-6.9,4.96c-1.78,2.02-3.11,4.28-3.99,6.78c-0.89,2.5-1.42,5.05-1.57,7.63
			l41.4-6.78c-0.48-3.23-2.26-6.45-5.33-9.68C19.86,1169.61,15.34,1168,9.37,1168z"/>
		<path class="st5" d="M140.84,1263.15c-9.53,0-18.36-1.33-26.51-4c-8.15-2.66-15.25-6.66-21.31-11.98s-10.82-12.02-14.28-20.09
			c-3.47-8.07-5.21-17.51-5.21-28.33c0-10.65,1.73-19.81,5.21-27.48c3.47-7.66,8.03-13.96,13.68-18.88
			c5.65-4.92,12.11-8.55,19.37-10.9c7.26-2.34,14.69-3.51,22.27-3.51c8.55,0,16.34,1.29,23.36,3.87
			c7.02,2.58,13.07,6.14,18.16,10.65c5.08,4.52,9.04,9.93,11.86,16.22c2.82,6.29,4.24,13.16,4.24,20.58c0,5.49-1.54,9.68-4.6,12.59
			c-3.07,2.91-7.35,4.76-12.83,5.57l-59.8,8.96c1.77,5.33,5.41,9.32,10.89,11.98c5.49,2.66,11.78,4,18.88,4
			c6.62,0,12.87-0.85,18.76-2.54c5.89-1.7,10.69-3.67,14.41-5.93c2.58,1.62,4.76,3.87,6.54,6.78c1.77,2.91,2.66,5.97,2.66,9.2
			c0,7.26-3.39,12.67-10.17,16.22c-5.17,2.75-10.98,4.6-17.43,5.57C152.54,1262.66,146.49,1263.15,140.84,1263.15z M134.06,1168
			c-3.87,0-7.22,0.65-10.05,1.94c-2.83,1.29-5.13,2.95-6.9,4.96c-1.78,2.02-3.11,4.28-4,6.78c-0.89,2.5-1.41,5.05-1.57,7.63
			l41.4-6.78c-0.48-3.23-2.26-6.45-5.33-9.68C144.55,1169.61,140.03,1168,134.06,1168z"/>
		<g>
			<path class="st5" d="M-62.19,1117.5c-5.5-3.63-12.96-5.45-22.38-5.45c-5.7,0-11.39,0.44-17.08,1.32
				c-4.53,0.7-15.35,3.84-23.11,9.12c-2.57-4.5-6.1-9.15-11.23-13.34c-9.33-7.61-23.06-0.42-35.9-2.34
				c-0.74-0.11-1.63-0.18-2.17,0.32c-0.39,0.37-0.44,0.91-0.47,1.4c-0.57,12.88,1.5,18.43,8.52,29.46c2.81,4.42,6.94,7.05,11.8,8.59
				c-0.1,1.01-0.15,2.06-0.15,3.15v88.33c0,4.91,0.63,8.88,1.91,11.92c1.27,3.05,3.09,5.45,5.45,7.21c2.36,1.77,5.25,2.95,8.69,3.53
				c3.43,0.59,7.31,0.88,11.63,0.88c4.51,0,8.88-0.29,13.1-0.88c4.22-0.59,7.31-1.18,9.27-1.77v-100.41
				c2.55-1.18,5.64-2.21,9.27-3.09c3.63-0.88,7.51-1.72,11.63-2.5c4.12-0.78,8.34-1.37,12.66-1.77c4.32-0.39,8.54-0.59,12.66-0.59
				c1.18-2.16,2.16-4.56,2.94-7.21c0.78-2.65,1.18-5.35,1.18-8.1C-53.95,1127.07-56.7,1121.13-62.19,1117.5z"/>
		</g>
	</g>
	<text transform="matrix(1 0 0 1 2273.3374 353.2744)"><tspan x="0" y="0" class="st0" style="font-family:'ArchivoBlack-Regular'; font-size:294.4442px; letter-spacing:-10;">r</tspan><tspan x="120.72" y="0" class="st0" style="font-family:'ArchivoBlack-Regular'; font-size:242.1088px; letter-spacing:-8;">ee</tspan></text>
	<text transform="matrix(1 0 0 1 2850.3374 353.2744)"><tspan x="0" y="0" style="font-family:'ArchivoBlack-Regular'; font-size:294.4442px; letter-spacing:-10;">r</tspan><tspan x="120.72" y="0" style="font-family:'ArchivoBlack-Regular'; font-size:242.1088px; letter-spacing:-8;">ee</tspan></text>
	<text transform="matrix(1 0 0 1 1740.3374 353.2744)"><tspan x="0" y="0" style="fill:#07841B; font-family:'ArchivoBlack-Regular'; font-size:294.4442px; letter-spacing:-10;">r</tspan><tspan x="120.72" y="0" style="fill:#07841B; font-family:'ArchivoBlack-Regular'; font-size:242.1088px; letter-spacing:-8;">ee</tspan></text>
	<text transform="matrix(1.031 0 0 1 1803.3379 -506.8281)"><tspan x="0" y="0" style="fill:#07841B; font-family:'EBGaramond-ExtraBold'; font-size:294.7548px; letter-spacing:-0.97;">r</tspan><tspan x="125.86" y="0" style="fill:#07841B; font-family:'EBGaramond-ExtraBold'; font-size:242.3642px; letter-spacing:-0.97;">ee</tspan></text>
	<text transform="matrix(1.031 0 0 1 2300.3379 -506.8281)"><tspan x="0" y="0" class="st0" style="font-family:'EBGaramond-ExtraBold'; font-size:294.7548px; letter-spacing:-0.97;">r</tspan><tspan x="125.86" y="0" class="st0" style="font-family:'EBGaramond-ExtraBold'; font-size:242.3642px; letter-spacing:-0.97;">ee</tspan></text>
	<text transform="matrix(1.031 0 0 1 2878.3379 -506.8281)"><tspan x="0" y="0" style="font-family:'EBGaramond-ExtraBold'; font-size:294.7548px; letter-spacing:-0.97;">r</tspan><tspan x="125.86" y="0" style="font-family:'EBGaramond-ExtraBold'; font-size:242.3642px; letter-spacing:-0.97;">ee</tspan></text>
	<rect x="-249" y="490" class="st5" width="88" height="88"/>
	<rect x="-125" y="490" class="st6" width="88" height="88"/>
	<rect x="3" y="490" width="88" height="88"/>
	<g>
		<path d="M1099.15,1279.15c-9.53,0-18.36-1.33-26.51-4c-8.15-2.66-15.25-6.66-21.31-11.98s-10.82-12.02-14.28-20.09
			c-3.47-8.07-5.21-17.51-5.21-28.33c0-10.65,1.73-19.81,5.21-27.48c3.47-7.66,8.03-13.96,13.68-18.88
			c5.65-4.92,12.11-8.55,19.37-10.9c7.26-2.34,14.69-3.51,22.27-3.51c8.55,0,16.34,1.29,23.36,3.87
			c7.02,2.58,13.07,6.14,18.16,10.65c5.08,4.52,9.04,9.93,11.86,16.22c2.82,6.29,4.24,13.16,4.24,20.58c0,5.49-1.54,9.68-4.6,12.59
			c-3.07,2.91-7.35,4.76-12.83,5.57l-59.8,8.96c1.77,5.33,5.41,9.32,10.9,11.98c5.48,2.66,11.78,4,18.88,4
			c6.62,0,12.87-0.85,18.76-2.54c5.89-1.7,10.69-3.67,14.41-5.93c2.58,1.62,4.76,3.87,6.54,6.78c1.77,2.91,2.66,5.97,2.66,9.2
			c0,7.26-3.39,12.67-10.17,16.22c-5.17,2.75-10.98,4.6-17.43,5.57C1110.85,1278.66,1104.8,1279.15,1099.15,1279.15z M1092.37,1184
			c-3.87,0-7.23,0.65-10.05,1.94c-2.83,1.29-5.13,2.95-6.9,4.96c-1.78,2.02-3.11,4.28-3.99,6.78c-0.89,2.5-1.42,5.05-1.57,7.63
			l41.4-6.78c-0.48-3.23-2.26-6.45-5.33-9.68C1102.86,1185.61,1098.34,1184,1092.37,1184z"/>
		<path d="M1223.84,1279.15c-9.53,0-18.36-1.33-26.51-4c-8.15-2.66-15.25-6.66-21.31-11.98s-10.82-12.02-14.28-20.09
			c-3.47-8.07-5.21-17.51-5.21-28.33c0-10.65,1.73-19.81,5.21-27.48c3.47-7.66,8.03-13.96,13.68-18.88
			c5.65-4.92,12.11-8.55,19.37-10.9c7.26-2.34,14.69-3.51,22.27-3.51c8.55,0,16.34,1.29,23.36,3.87
			c7.02,2.58,13.07,6.14,18.16,10.65c5.08,4.52,9.04,9.93,11.86,16.22c2.82,6.29,4.24,13.16,4.24,20.58c0,5.49-1.54,9.68-4.6,12.59
			c-3.07,2.91-7.35,4.76-12.83,5.57l-59.8,8.96c1.77,5.33,5.41,9.32,10.89,11.98c5.49,2.66,11.78,4,18.88,4
			c6.62,0,12.87-0.85,18.76-2.54c5.89-1.7,10.69-3.67,14.41-5.93c2.58,1.62,4.76,3.87,6.54,6.78c1.77,2.91,2.66,5.97,2.66,9.2
			c0,7.26-3.39,12.67-10.17,16.22c-5.17,2.75-10.98,4.6-17.43,5.57C1235.54,1278.66,1229.49,1279.15,1223.84,1279.15z M1217.06,1184
			c-3.87,0-7.22,0.65-10.05,1.94c-2.83,1.29-5.13,2.95-6.9,4.96c-1.78,2.02-3.11,4.28-4,6.78c-0.89,2.5-1.41,5.05-1.57,7.63
			l41.4-6.78c-0.48-3.23-2.26-6.45-5.33-9.68C1227.55,1185.61,1223.03,1184,1217.06,1184z"/>
		<g>
			<path d="M1020.81,1133.5c-5.5-3.63-12.96-5.45-22.38-5.45c-5.7,0-11.39,0.44-17.08,1.32c-4.53,0.7-15.35,3.84-23.11,9.12
				c-2.57-4.5-6.1-9.15-11.23-13.34c-9.33-7.61-23.06-0.42-35.9-2.34c-0.74-0.11-1.63-0.18-2.17,0.32c-0.39,0.37-0.44,0.91-0.47,1.4
				c-0.57,12.88,1.5,18.43,8.52,29.46c2.81,4.42,6.94,7.05,11.8,8.59c-0.1,1.01-0.15,2.06-0.15,3.15v88.33
				c0,4.91,0.63,8.88,1.91,11.92c1.27,3.05,3.09,5.45,5.45,7.21c2.36,1.77,5.25,2.95,8.69,3.53c3.43,0.59,7.31,0.88,11.63,0.88
				c4.51,0,8.88-0.29,13.1-0.88c4.22-0.59,7.31-1.18,9.27-1.77v-100.41c2.55-1.18,5.64-2.21,9.27-3.09
				c3.63-0.88,7.51-1.72,11.63-2.5c4.12-0.78,8.34-1.37,12.66-1.77c4.32-0.39,8.54-0.59,12.66-0.59c1.18-2.16,2.16-4.56,2.94-7.21
				c0.78-2.65,1.18-5.35,1.18-8.1C1029.05,1143.07,1026.3,1137.13,1020.81,1133.5z"/>
		</g>
	</g>
	<g>
		<path class="st6" d="M555.15,1279.15c-9.53,0-18.36-1.33-26.51-4c-8.15-2.66-15.25-6.66-21.31-11.98s-10.82-12.02-14.28-20.09
			c-3.47-8.07-5.21-17.51-5.21-28.33c0-10.65,1.73-19.81,5.21-27.48c3.47-7.66,8.03-13.96,13.68-18.88
			c5.65-4.92,12.11-8.55,19.37-10.9c7.26-2.34,14.69-3.51,22.27-3.51c8.55,0,16.34,1.29,23.36,3.87
			c7.02,2.58,13.07,6.14,18.16,10.65c5.08,4.52,9.04,9.93,11.86,16.22c2.82,6.29,4.24,13.16,4.24,20.58c0,5.49-1.54,9.68-4.6,12.59
			c-3.07,2.91-7.35,4.76-12.83,5.57l-59.8,8.96c1.77,5.33,5.41,9.32,10.9,11.98c5.48,2.66,11.78,4,18.88,4
			c6.62,0,12.87-0.85,18.76-2.54c5.89-1.7,10.69-3.67,14.41-5.93c2.58,1.62,4.76,3.87,6.54,6.78c1.77,2.91,2.66,5.97,2.66,9.2
			c0,7.26-3.39,12.67-10.17,16.22c-5.17,2.75-10.98,4.6-17.43,5.57C566.85,1278.66,560.8,1279.15,555.15,1279.15z M548.37,1184
			c-3.87,0-7.23,0.65-10.05,1.94c-2.83,1.29-5.13,2.95-6.9,4.96c-1.78,2.02-3.11,4.28-3.99,6.78c-0.89,2.5-1.42,5.05-1.57,7.63
			l41.4-6.78c-0.48-3.23-2.26-6.45-5.33-9.68C558.86,1185.61,554.34,1184,548.37,1184z"/>
		<path class="st6" d="M679.84,1279.15c-9.53,0-18.36-1.33-26.51-4c-8.15-2.66-15.25-6.66-21.31-11.98s-10.82-12.02-14.28-20.09
			c-3.47-8.07-5.21-17.51-5.21-28.33c0-10.65,1.73-19.81,5.21-27.48c3.47-7.66,8.03-13.96,13.68-18.88
			c5.65-4.92,12.11-8.55,19.37-10.9c7.26-2.34,14.69-3.51,22.27-3.51c8.55,0,16.34,1.29,23.36,3.87
			c7.02,2.58,13.07,6.14,18.16,10.65c5.08,4.52,9.04,9.93,11.86,16.22c2.82,6.29,4.24,13.16,4.24,20.58c0,5.49-1.54,9.68-4.6,12.59
			c-3.07,2.91-7.35,4.76-12.83,5.57l-59.8,8.96c1.77,5.33,5.41,9.32,10.89,11.98c5.49,2.66,11.78,4,18.88,4
			c6.62,0,12.87-0.85,18.76-2.54c5.89-1.7,10.69-3.67,14.41-5.93c2.58,1.62,4.76,3.87,6.54,6.78c1.77,2.91,2.66,5.97,2.66,9.2
			c0,7.26-3.39,12.67-10.17,16.22c-5.17,2.75-10.98,4.6-17.43,5.57C691.54,1278.66,685.49,1279.15,679.84,1279.15z M673.06,1184
			c-3.87,0-7.22,0.65-10.05,1.94c-2.83,1.29-5.13,2.95-6.9,4.96c-1.78,2.02-3.11,4.28-4,6.78c-0.89,2.5-1.41,5.05-1.57,7.63
			l41.4-6.78c-0.48-3.23-2.26-6.45-5.33-9.68C683.55,1185.61,679.03,1184,673.06,1184z"/>
		<g>
			<path class="st6" d="M476.81,1133.5c-5.5-3.63-12.96-5.45-22.38-5.45c-5.7,0-11.39,0.44-17.08,1.32
				c-4.53,0.7-15.35,3.84-23.11,9.12c-2.57-4.5-6.1-9.15-11.23-13.34c-9.33-7.61-23.06-0.42-35.9-2.34
				c-0.74-0.11-1.63-0.18-2.17,0.32c-0.39,0.37-0.44,0.91-0.47,1.4c-0.57,12.88,1.5,18.43,8.52,29.46c2.81,4.42,6.94,7.05,11.8,8.59
				c-0.1,1.01-0.15,2.06-0.15,3.15v88.33c0,4.91,0.63,8.88,1.91,11.92c1.27,3.05,3.09,5.45,5.45,7.21c2.36,1.77,5.25,2.95,8.69,3.53
				c3.43,0.59,7.31,0.88,11.63,0.88c4.51,0,8.88-0.29,13.1-0.88c4.22-0.59,7.31-1.18,9.27-1.77v-100.41
				c2.55-1.18,5.64-2.21,9.27-3.09c3.63-0.88,7.51-1.72,11.63-2.5c4.12-0.78,8.34-1.37,12.66-1.77c4.32-0.39,8.54-0.59,12.66-0.59
				c1.18-2.16,2.16-4.56,2.94-7.21c0.78-2.65,1.18-5.35,1.18-8.1C485.05,1143.07,482.3,1137.13,476.81,1133.5z"/>
		</g>
	</g>
	<g>
		<path class="st5" d="M-1185.85,1237.15c-9.53,0-18.36-1.33-26.51-4c-8.15-2.66-15.25-6.66-21.31-11.98s-10.82-12.02-14.28-20.09
			c-3.47-8.07-5.21-17.51-5.21-28.33c0-10.65,1.73-19.81,5.21-27.48c3.47-7.66,8.03-13.96,13.68-18.88
			c5.65-4.92,12.11-8.55,19.37-10.9c7.26-2.34,14.69-3.51,22.27-3.51c8.55,0,16.34,1.29,23.36,3.87
			c7.02,2.58,13.07,6.14,18.16,10.65c5.08,4.52,9.04,9.93,11.86,16.22c2.82,6.29,4.24,13.16,4.24,20.58c0,5.49-1.54,9.68-4.6,12.59
			c-3.07,2.91-7.35,4.76-12.83,5.57l-59.8,8.96c1.77,5.33,5.41,9.32,10.9,11.98c5.48,2.66,11.78,4,18.88,4
			c6.62,0,12.87-0.85,18.76-2.54c5.89-1.7,10.69-3.67,14.41-5.93c2.58,1.62,4.76,3.87,6.54,6.78c1.77,2.91,2.66,5.97,2.66,9.2
			c0,7.26-3.39,12.67-10.17,16.22c-5.17,2.75-10.98,4.6-17.43,5.57C-1174.15,1236.66-1180.2,1237.15-1185.85,1237.15z
			 M-1192.63,1142c-3.87,0-7.23,0.65-10.05,1.94c-2.83,1.29-5.13,2.95-6.9,4.96c-1.78,2.02-3.11,4.28-3.99,6.78
			c-0.89,2.5-1.42,5.05-1.57,7.63l41.4-6.78c-0.48-3.23-2.26-6.45-5.33-9.68C-1182.14,1143.61-1186.66,1142-1192.63,1142z"/>
		<path class="st5" d="M-1061.16,1237.15c-9.53,0-18.36-1.33-26.51-4c-8.15-2.66-15.25-6.66-21.31-11.98s-10.82-12.02-14.28-20.09
			c-3.47-8.07-5.21-17.51-5.21-28.33c0-10.65,1.73-19.81,5.21-27.48c3.47-7.66,8.03-13.96,13.68-18.88
			c5.65-4.92,12.11-8.55,19.37-10.9c7.26-2.34,14.69-3.51,22.27-3.51c8.55,0,16.34,1.29,23.36,3.87
			c7.02,2.58,13.07,6.14,18.16,10.65c5.08,4.52,9.04,9.93,11.86,16.22c2.82,6.29,4.24,13.16,4.24,20.58c0,5.49-1.54,9.68-4.6,12.59
			c-3.07,2.91-7.35,4.76-12.83,5.57l-59.8,8.96c1.77,5.33,5.41,9.32,10.89,11.98c5.49,2.66,11.78,4,18.88,4
			c6.62,0,12.87-0.85,18.76-2.54c5.89-1.7,10.69-3.67,14.41-5.93c2.58,1.62,4.76,3.87,6.54,6.78c1.77,2.91,2.66,5.97,2.66,9.2
			c0,7.26-3.39,12.67-10.17,16.22c-5.17,2.75-10.98,4.6-17.43,5.57C-1049.46,1236.66-1055.51,1237.15-1061.16,1237.15z
			 M-1067.94,1142c-3.87,0-7.22,0.65-10.05,1.94c-2.83,1.29-5.13,2.95-6.9,4.96c-1.78,2.02-3.11,4.28-4,6.78
			c-0.89,2.5-1.41,5.05-1.57,7.63l41.4-6.78c-0.48-3.23-2.26-6.45-5.33-9.68C-1057.45,1143.61-1061.97,1142-1067.94,1142z"/>
		<g>
			<path class="st5" d="M-1264.19,1091.5c-5.5-3.63-12.96-5.45-22.38-5.45c-5.7,0-11.39,0.44-17.08,1.32
				c-4.53,0.7-15.35,3.84-23.11,9.12c-2.57-4.5-6.1-9.15-11.23-13.34c-9.33-7.61-23.06-0.42-35.9-2.34
				c-0.74-0.11-1.63-0.18-2.17,0.32c-0.39,0.37-0.44,0.91-0.47,1.4c-0.57,12.88,1.5,18.43,8.52,29.46c2.81,4.42,6.94,7.05,11.8,8.59
				c-0.1,1.01-0.15,2.06-0.15,3.15v88.33c0,4.91,0.63,8.88,1.91,11.92c1.27,3.05,3.09,5.45,5.45,7.21c2.36,1.77,5.25,2.95,8.69,3.53
				c3.43,0.59,7.31,0.88,11.63,0.88c4.51,0,8.88-0.29,13.1-0.88c4.22-0.59,7.31-1.18,9.27-1.77v-100.41
				c2.55-1.18,5.64-2.21,9.27-3.09c3.63-0.88,7.51-1.72,11.63-2.5c4.12-0.78,8.34-1.37,12.66-1.77c4.32-0.39,8.54-0.59,12.66-0.59
				c1.18-2.16,2.16-4.56,2.94-7.21c0.78-2.65,1.18-5.35,1.18-8.1C-1255.95,1101.07-1258.7,1095.13-1264.19,1091.5z"/>
		</g>
	</g>
</g>
<g id="Camada_8">
	<rect x="-1695" y="284" class="st7" width="1354" height="1119"/>
	<path class="st8" d="M-467.82,1357h-308.37c-29.72,0-53.82-24.09-53.82-53.82v-128.37c0-29.72,24.09-53.82,53.82-53.82h308.37
		c29.72,0,53.82,24.09,53.82,53.82v128.37C-414,1332.91-438.09,1357-467.82,1357z"/>
	<g>
		<path class="st9" d="M-614.85,1316.15c-9.53,0-18.36-1.33-26.51-4c-8.15-2.66-15.25-6.66-21.31-11.98s-10.82-12.02-14.28-20.09
			c-3.47-8.07-5.21-17.51-5.21-28.33c0-10.65,1.73-19.81,5.21-27.48c3.47-7.66,8.03-13.96,13.68-18.88
			c5.65-4.92,12.11-8.55,19.37-10.9c7.26-2.34,14.69-3.51,22.27-3.51c8.55,0,16.34,1.29,23.36,3.87
			c7.02,2.58,13.07,6.14,18.16,10.65c5.08,4.52,9.04,9.93,11.86,16.22c2.82,6.29,4.24,13.16,4.24,20.58c0,5.49-1.54,9.68-4.6,12.59
			c-3.07,2.91-7.35,4.76-12.83,5.57l-59.8,8.96c1.77,5.33,5.41,9.32,10.9,11.98c5.48,2.66,11.78,4,18.88,4
			c6.62,0,12.87-0.85,18.76-2.54c5.89-1.7,10.69-3.67,14.41-5.93c2.58,1.62,4.76,3.87,6.54,6.78c1.77,2.91,2.66,5.97,2.66,9.2
			c0,7.26-3.39,12.67-10.17,16.22c-5.17,2.75-10.98,4.6-17.43,5.57C-603.15,1315.66-609.2,1316.15-614.85,1316.15z M-621.63,1221
			c-3.87,0-7.23,0.65-10.05,1.94c-2.83,1.29-5.13,2.95-6.9,4.96c-1.78,2.02-3.11,4.28-3.99,6.78c-0.89,2.5-1.42,5.05-1.57,7.63
			l41.4-6.78c-0.48-3.23-2.26-6.45-5.33-9.68C-611.14,1222.61-615.66,1221-621.63,1221z"/>
		<path class="st9" d="M-490.16,1316.15c-9.53,0-18.36-1.33-26.51-4c-8.15-2.66-15.25-6.66-21.31-11.98s-10.82-12.02-14.28-20.09
			c-3.47-8.07-5.21-17.51-5.21-28.33c0-10.65,1.73-19.81,5.21-27.48c3.47-7.66,8.03-13.96,13.68-18.88
			c5.65-4.92,12.11-8.55,19.37-10.9c7.26-2.34,14.69-3.51,22.27-3.51c8.55,0,16.34,1.29,23.36,3.87
			c7.02,2.58,13.07,6.14,18.16,10.65c5.08,4.52,9.04,9.93,11.86,16.22c2.82,6.29,4.24,13.16,4.24,20.58c0,5.49-1.54,9.68-4.6,12.59
			c-3.07,2.91-7.35,4.76-12.83,5.57l-59.8,8.96c1.77,5.33,5.41,9.32,10.89,11.98c5.49,2.66,11.78,4,18.88,4
			c6.62,0,12.87-0.85,18.76-2.54c5.89-1.7,10.69-3.67,14.41-5.93c2.58,1.62,4.76,3.87,6.54,6.78c1.77,2.91,2.66,5.97,2.66,9.2
			c0,7.26-3.39,12.67-10.17,16.22c-5.17,2.75-10.98,4.6-17.43,5.57C-478.46,1315.66-484.51,1316.15-490.16,1316.15z M-496.94,1221
			c-3.87,0-7.22,0.65-10.05,1.94c-2.83,1.29-5.13,2.95-6.9,4.96c-1.78,2.02-3.11,4.28-4,6.78c-0.89,2.5-1.41,5.05-1.57,7.63
			l41.4-6.78c-0.48-3.23-2.26-6.45-5.33-9.68C-486.45,1222.61-490.97,1221-496.94,1221z"/>
		<g>
			<path class="st9" d="M-693.19,1170.5c-5.5-3.63-12.96-5.45-22.38-5.45c-5.7,0-11.39,0.44-17.08,1.32
				c-4.53,0.7-15.35,3.84-23.11,9.12c-2.57-4.5-6.1-9.15-11.23-13.34c-9.33-7.61-23.06-0.42-35.9-2.34
				c-0.74-0.11-1.63-0.18-2.17,0.32c-0.39,0.37-0.44,0.91-0.47,1.4c-0.57,12.88,1.5,18.43,8.52,29.46c2.81,4.42,6.94,7.05,11.8,8.59
				c-0.1,1.01-0.15,2.06-0.15,3.15v88.33c0,4.91,0.63,8.88,1.91,11.92c1.27,3.05,3.09,5.45,5.45,7.21c2.36,1.77,5.25,2.95,8.69,3.53
				c3.43,0.59,7.31,0.88,11.63,0.88c4.51,0,8.88-0.29,13.1-0.88c4.22-0.59,7.31-1.18,9.27-1.77v-100.41
				c2.55-1.18,5.64-2.21,9.27-3.09c3.63-0.88,7.51-1.72,11.63-2.5c4.12-0.78,8.34-1.37,12.66-1.77c4.32-0.39,8.54-0.59,12.66-0.59
				c1.18-2.16,2.16-4.56,2.94-7.21c0.78-2.65,1.18-5.35,1.18-8.1C-684.95,1180.07-687.7,1174.13-693.19,1170.5z"/>
		</g>
	</g>
	<path class="st8" d="M-462.82,1091h-308.37c-29.72,0-53.82-24.09-53.82-53.82V908.82c0-29.72,24.09-53.82,53.82-53.82h308.37
		c29.72,0,53.82,24.09,53.82,53.82v128.37C-409,1066.91-433.09,1091-462.82,1091z"/>
	<g>
		<path class="st10" d="M-609.85,1050.15c-9.53,0-18.36-1.33-26.51-4c-8.15-2.66-15.25-6.66-21.31-11.98s-10.82-12.02-14.28-20.09
			c-3.47-8.07-5.21-17.51-5.21-28.33c0-10.65,1.73-19.81,5.21-27.48c3.47-7.66,8.03-13.96,13.68-18.88
			c5.65-4.92,12.11-8.55,19.37-10.9c7.26-2.34,14.69-3.51,22.27-3.51c8.55,0,16.34,1.29,23.36,3.87
			c7.02,2.58,13.07,6.14,18.16,10.65c5.08,4.52,9.04,9.93,11.86,16.22c2.82,6.29,4.24,13.16,4.24,20.58c0,5.49-1.54,9.68-4.6,12.59
			c-3.07,2.91-7.35,4.76-12.83,5.57l-59.8,8.96c1.77,5.33,5.41,9.32,10.9,11.98c5.48,2.66,11.78,4,18.88,4
			c6.62,0,12.87-0.85,18.76-2.54c5.89-1.7,10.69-3.67,14.41-5.93c2.58,1.62,4.76,3.87,6.54,6.78c1.77,2.91,2.66,5.97,2.66,9.2
			c0,7.26-3.39,12.67-10.17,16.22c-5.17,2.75-10.98,4.6-17.43,5.57C-598.15,1049.66-604.2,1050.15-609.85,1050.15z M-616.63,955
			c-3.87,0-7.23,0.65-10.05,1.94c-2.83,1.29-5.13,2.95-6.9,4.96c-1.78,2.02-3.11,4.28-3.99,6.78c-0.89,2.5-1.42,5.05-1.57,7.63
			l41.4-6.78c-0.48-3.23-2.26-6.45-5.33-9.68C-606.14,956.61-610.66,955-616.63,955z"/>
		<path class="st10" d="M-485.16,1050.15c-9.53,0-18.36-1.33-26.51-4c-8.15-2.66-15.25-6.66-21.31-11.98s-10.82-12.02-14.28-20.09
			c-3.47-8.07-5.21-17.51-5.21-28.33c0-10.65,1.73-19.81,5.21-27.48c3.47-7.66,8.03-13.96,13.68-18.88
			c5.65-4.92,12.11-8.55,19.37-10.9c7.26-2.34,14.69-3.51,22.27-3.51c8.55,0,16.34,1.29,23.36,3.87
			c7.02,2.58,13.07,6.14,18.16,10.65c5.08,4.52,9.04,9.93,11.86,16.22c2.82,6.29,4.24,13.16,4.24,20.58c0,5.49-1.54,9.68-4.6,12.59
			c-3.07,2.91-7.35,4.76-12.83,5.57l-59.8,8.96c1.77,5.33,5.41,9.32,10.89,11.98c5.49,2.66,11.78,4,18.88,4
			c6.62,0,12.87-0.85,18.76-2.54c5.89-1.7,10.69-3.67,14.41-5.93c2.58,1.62,4.76,3.87,6.54,6.78c1.77,2.91,2.66,5.97,2.66,9.2
			c0,7.26-3.39,12.67-10.17,16.22c-5.17,2.75-10.98,4.6-17.43,5.57C-473.46,1049.66-479.51,1050.15-485.16,1050.15z M-491.94,955
			c-3.87,0-7.22,0.65-10.05,1.94c-2.83,1.29-5.13,2.95-6.9,4.96c-1.78,2.02-3.11,4.28-4,6.78c-0.89,2.5-1.41,5.05-1.57,7.63
			l41.4-6.78c-0.48-3.23-2.26-6.45-5.33-9.68C-481.45,956.61-485.97,955-491.94,955z"/>
		<g>
			<path class="st10" d="M-688.19,904.5c-5.5-3.63-12.96-5.45-22.38-5.45c-5.7,0-11.39,0.44-17.08,1.32
				c-4.53,0.7-15.35,3.84-23.11,9.12c-2.57-4.5-6.1-9.15-11.23-13.34c-9.33-7.61-23.06-0.42-35.9-2.34
				c-0.74-0.11-1.63-0.18-2.17,0.32c-0.39,0.37-0.44,0.91-0.47,1.4c-0.57,12.88,1.5,18.43,8.52,29.46c2.81,4.42,6.94,7.05,11.8,8.59
				c-0.1,1.01-0.15,2.06-0.15,3.15v88.33c0,4.91,0.63,8.88,1.91,11.92c1.27,3.05,3.09,5.45,5.45,7.21c2.36,1.77,5.25,2.95,8.69,3.53
				c3.43,0.59,7.31,0.88,11.63,0.88c4.51,0,8.88-0.29,13.1-0.88c4.22-0.59,7.31-1.18,9.27-1.77V945.57
				c2.55-1.18,5.64-2.21,9.27-3.09c3.63-0.88,7.51-1.72,11.63-2.5c4.12-0.78,8.34-1.37,12.66-1.77c4.32-0.39,8.54-0.59,12.66-0.59
				c1.18-2.16,2.16-4.56,2.94-7.21c0.78-2.65,1.18-5.35,1.18-8.1C-679.95,914.07-682.7,908.13-688.19,904.5z"/>
		</g>
	</g>
	<path class="st11" d="M-466.82,739h-308.37c-29.72,0-53.82-24.09-53.82-53.82V556.82c0-29.72,24.09-53.82,53.82-53.82h308.37
		c29.72,0,53.82,24.09,53.82,53.82v128.37C-413,714.91-437.09,739-466.82,739z"/>
	<g>
		<path class="st12" d="M195.15,166.15c-9.53,0-18.36-1.33-26.51-4c-8.15-2.66-15.25-6.66-21.31-11.98s-10.82-12.02-14.28-20.09
			c-3.47-8.07-5.21-17.51-5.21-28.33c0-10.65,1.73-19.81,5.21-27.48c3.47-7.66,8.03-13.96,13.68-18.88
			c5.65-4.92,12.11-8.55,19.37-10.9c7.26-2.34,14.69-3.51,22.27-3.51c8.55,0,16.34,1.29,23.36,3.87
			c7.02,2.58,13.07,6.14,18.16,10.65c5.08,4.52,9.04,9.93,11.86,16.22c2.82,6.29,4.24,13.16,4.24,20.58c0,5.49-1.54,9.68-4.6,12.59
			c-3.07,2.91-7.35,4.76-12.83,5.57l-59.8,8.96c1.77,5.33,5.41,9.32,10.9,11.98c5.48,2.66,11.78,4,18.88,4
			c6.62,0,12.87-0.85,18.76-2.54c5.89-1.7,10.69-3.67,14.41-5.93c2.58,1.62,4.76,3.87,6.54,6.78c1.77,2.91,2.66,5.97,2.66,9.2
			c0,7.26-3.39,12.67-10.17,16.22c-5.17,2.75-10.98,4.6-17.43,5.57C206.85,165.66,200.8,166.15,195.15,166.15z M188.37,71
			c-3.87,0-7.23,0.65-10.05,1.94c-2.83,1.29-5.13,2.95-6.9,4.96c-1.78,2.02-3.11,4.28-3.99,6.78c-0.89,2.5-1.42,5.05-1.57,7.63
			l41.4-6.78c-0.48-3.23-2.26-6.45-5.33-9.68C198.86,72.61,194.34,71,188.37,71z"/>
		<path class="st12" d="M319.84,166.15c-9.53,0-18.36-1.33-26.51-4c-8.15-2.66-15.25-6.66-21.31-11.98s-10.82-12.02-14.28-20.09
			c-3.47-8.07-5.21-17.51-5.21-28.33c0-10.65,1.73-19.81,5.21-27.48c3.47-7.66,8.03-13.96,13.68-18.88
			c5.65-4.92,12.11-8.55,19.37-10.9c7.26-2.34,14.69-3.51,22.27-3.51c8.55,0,16.34,1.29,23.36,3.87
			c7.02,2.58,13.07,6.14,18.16,10.65c5.08,4.52,9.04,9.93,11.86,16.22c2.82,6.29,4.24,13.16,4.24,20.58c0,5.49-1.54,9.68-4.6,12.59
			c-3.07,2.91-7.35,4.76-12.83,5.57l-59.8,8.96c1.77,5.33,5.41,9.32,10.89,11.98c5.49,2.66,11.78,4,18.88,4
			c6.62,0,12.87-0.85,18.76-2.54c5.89-1.7,10.69-3.67,14.41-5.93c2.58,1.62,4.76,3.87,6.54,6.78c1.77,2.91,2.66,5.97,2.66,9.2
			c0,7.26-3.39,12.67-10.17,16.22c-5.17,2.75-10.98,4.6-17.43,5.57C331.54,165.66,325.49,166.15,319.84,166.15z M313.06,71
			c-3.87,0-7.22,0.65-10.05,1.94c-2.83,1.29-5.13,2.95-6.9,4.96c-1.78,2.02-3.11,4.28-4,6.78c-0.89,2.5-1.41,5.05-1.57,7.63
			l41.4-6.78c-0.48-3.23-2.26-6.45-5.33-9.68C323.55,72.61,319.03,71,313.06,71z"/>
		<g>
			<path class="st12" d="M116.81,20.5c-5.5-3.63-12.96-5.45-22.38-5.45c-5.7,0-11.39,0.44-17.08,1.32
				c-4.53,0.7-15.35,3.84-23.11,9.12c-2.57-4.5-6.1-9.15-11.23-13.34c-9.33-7.61-23.06-0.42-35.9-2.34
				c-0.74-0.11-1.63-0.18-2.17,0.32c-0.39,0.37-0.44,0.91-0.47,1.4C3.91,24.42,5.99,29.97,13,41c2.81,4.42,6.94,7.05,11.8,8.59
				c-0.1,1.01-0.15,2.06-0.15,3.15v88.33c0,4.91,0.63,8.88,1.91,11.92c1.27,3.05,3.09,5.45,5.45,7.21c2.36,1.77,5.25,2.95,8.69,3.53
				c3.43,0.59,7.31,0.88,11.63,0.88c4.51,0,8.88-0.29,13.1-0.88c4.22-0.59,7.31-1.18,9.27-1.77V61.57c2.55-1.18,5.64-2.21,9.27-3.09
				c3.63-0.88,7.51-1.72,11.63-2.5c4.12-0.78,8.34-1.37,12.66-1.77c4.32-0.39,8.54-0.59,12.66-0.59c1.18-2.16,2.16-4.56,2.94-7.21
				c0.78-2.65,1.18-5.35,1.18-8.1C125.05,30.07,122.3,24.13,116.81,20.5z"/>
		</g>
	</g>
</g>
<g id="Camada_5">
	<path class="st13" d="M3096-693c0,0,126-88,67-233c-33-75-112-174-112-174h-4c0,0-79.27,99-112.27,174c-59,145,67,233,67,233"/>
	<g>
		<circle class="st14" cx="3049" cy="-708" r="17.5"/>
		<line class="st14" x1="3048.5" y1="-725.5" x2="3048.5" y2="-1045.5"/>
		<circle class="st15" cx="3048.75" cy="-1052.25" r="4.75"/>
	</g>
	<g>
		<polyline class="st16" points="3049,-770.15 3107,-770 3107,-796 		"/>
		<polyline class="st16" points="3052,-749 3124,-748.94 3124,-790 		"/>
		<circle class="st15" cx="3106.75" cy="-802.25" r="4.75"/>
		<circle class="st15" cx="3123.75" cy="-796.25" r="4.75"/>
	</g>
	<g>
		<polyline class="st16" points="3048.5,-780.15 2990.5,-780 2990.5,-806 		"/>
		<polyline class="st16" points="3045.5,-759 2973.5,-758.94 2973.5,-800 		"/>
		<circle class="st15" cx="2990.75" cy="-812.25" r="4.75"/>
		<circle class="st15" cx="2973.75" cy="-806.25" r="4.75"/>
	</g>
	<g>
		<polyline class="st16" points="3052,-815 3085,-815 3095,-825 3124,-825 		"/>
		<circle class="st15" cx="3130.75" cy="-825.25" r="4.75"/>
		<polyline class="st16" points="3052,-837 3085,-837 3095,-847 3124,-847 		"/>
		<circle class="st15" cx="3130.75" cy="-847.25" r="4.75"/>
	</g>
	<g>
		<polyline class="st16" points="3047.5,-842 3014.5,-842 3004.5,-852 2975.5,-852 		"/>
		<circle class="st15" cx="2968.75" cy="-852.25" r="4.75"/>
		<polyline class="st16" points="3047.5,-865 3014.5,-865 3004.5,-875 2959,-875 		"/>
		<circle class="st15" cx="2952.75" cy="-875.25" r="4.75"/>
	</g>
	<g>
		<circle class="st15" cx="3151.75" cy="-887.25" r="4.75"/>
		<circle class="st15" cx="3139.75" cy="-916.25" r="4.75"/>
		<circle class="st15" cx="3128.75" cy="-934.25" r="4.75"/>
		<line class="st16" x1="3051.5" y1="-886.59" x2="3145.5" y2="-886.59"/>
		<polyline class="st16" points="3051,-903.1 3127.5,-903.1 3135.7,-911.3 		"/>
		<polyline class="st16" points="3051,-920.94 3115.5,-920.94 3124.28,-929.72 		"/>
	</g>
	<g>
		<g>
			<circle class="st15" cx="2970.25" cy="-944.25" r="4.75"/>
			<circle class="st15" cx="2981.25" cy="-975.25" r="4.75"/>
			<circle class="st15" cx="2992.25" cy="-995.25" r="4.75"/>
			<line class="st16" x1="3049" y1="-943.59" x2="2976.5" y2="-943.59"/>
			<polyline class="st16" points="3049,-962.1 2993.5,-962.1 2985.3,-970.3 			"/>
			<polyline class="st16" points="2996.72,-990.72 3005.5,-981.94 3049,-981.94 			"/>
		</g>
	</g>
</g>
<g id="Camada_6">
	<path class="st6" d="M1285.44,1090H929.56c-30.69,0-55.56-24.88-55.56-55.56V678.56c0-30.69,24.88-55.56,55.56-55.56h355.87
		c30.69,0,55.56,24.88,55.56,55.56v355.87C1341,1065.12,1316.12,1090,1285.44,1090z"/>
	<path class="st17" d="M2540-694c0,0,126-88,67-233c-33-75-112-174-112-174h-4c0,0-79.27,99-112.27,174c-59,145,67,233,67,233"/>
	<g>
		<circle class="st18" cx="2493" cy="-709" r="17.5"/>
		<line class="st18" x1="2492.5" y1="-726.5" x2="2492.5" y2="-1046.5"/>
		<circle class="st19" cx="2492.75" cy="-1053.25" r="4.75"/>
	</g>
	<g>
		<polyline class="st20" points="2493,-771.15 2551,-771 2551,-797 		"/>
		<polyline class="st20" points="2496,-750 2568,-749.94 2568,-791 		"/>
		<circle class="st19" cx="2550.75" cy="-803.25" r="4.75"/>
		<circle class="st19" cx="2567.75" cy="-797.25" r="4.75"/>
	</g>
	<g>
		<polyline class="st20" points="2492.5,-781.15 2434.5,-781 2434.5,-807 		"/>
		<polyline class="st20" points="2489.5,-760 2417.5,-759.94 2417.5,-801 		"/>
		<circle class="st19" cx="2434.75" cy="-813.25" r="4.75"/>
		<circle class="st19" cx="2417.75" cy="-807.25" r="4.75"/>
	</g>
	<g>
		<polyline class="st20" points="2496,-816 2529,-816 2539,-826 2568,-826 		"/>
		<circle class="st19" cx="2574.75" cy="-826.25" r="4.75"/>
		<polyline class="st20" points="2496,-838 2529,-838 2539,-848 2568,-848 		"/>
		<circle class="st19" cx="2574.75" cy="-848.25" r="4.75"/>
	</g>
	<g>
		<polyline class="st20" points="2491.5,-843 2458.5,-843 2448.5,-853 2419.5,-853 		"/>
		<circle class="st19" cx="2412.75" cy="-853.25" r="4.75"/>
		<polyline class="st20" points="2491.5,-866 2458.5,-866 2448.5,-876 2403,-876 		"/>
		<circle class="st19" cx="2396.75" cy="-876.25" r="4.75"/>
	</g>
	<g>
		<circle class="st19" cx="2595.75" cy="-888.25" r="4.75"/>
		<circle class="st19" cx="2583.75" cy="-917.25" r="4.75"/>
		<circle class="st19" cx="2572.75" cy="-935.25" r="4.75"/>
		<line class="st20" x1="2495.5" y1="-887.59" x2="2589.5" y2="-887.59"/>
		<polyline class="st20" points="2495,-904.1 2571.5,-904.1 2579.7,-912.3 		"/>
		<polyline class="st20" points="2495,-921.94 2559.5,-921.94 2568.28,-930.72 		"/>
	</g>
	<g>
		<g>
			<circle class="st19" cx="2414.25" cy="-945.25" r="4.75"/>
			<circle class="st19" cx="2425.25" cy="-976.25" r="4.75"/>
			<circle class="st19" cx="2436.25" cy="-996.25" r="4.75"/>
			<line class="st20" x1="2493" y1="-944.59" x2="2420.5" y2="-944.59"/>
			<polyline class="st20" points="2493,-963.1 2437.5,-963.1 2429.3,-971.3 			"/>
			<polyline class="st20" points="2440.72,-991.72 2449.5,-982.94 2493,-982.94 			"/>
		</g>
	</g>
	<g>
		<polyline class="st20" points="2499,48.85 2557,49 2557,23 		"/>
		<polyline class="st20" points="2502,70 2574,70.06 2574,29 		"/>
		<circle class="st19" cx="2556.75" cy="16.75" r="4.75"/>
		<circle class="st19" cx="2573.75" cy="22.75" r="4.75"/>
	</g>
	<path class="st6" d="M739.38,1090H371.62c-27.4,0-49.62-22.22-49.62-49.62V672.62c0-27.4,22.22-49.62,49.62-49.62h367.76
		c27.4,0,49.62,22.22,49.62,49.62v367.76C789,1067.78,766.78,1090,739.38,1090z"/>
	<g>
		<path class="st21" d="M52,1062c0,0,126-88,67-233C86,754,7,655,7,655H3c0,0-79.27,99-112.27,174c-59,145,67,233,67,233"/>
		<g>
			<circle class="st22" cx="5" cy="1047" r="17.5"/>
			<line class="st22" x1="4.5" y1="1029.5" x2="4.5" y2="709.5"/>
			<circle class="st23" cx="4.75" cy="702.75" r="4.75"/>
		</g>
		<g>
			<polyline class="st24" points="5,984.85 63,985 63,959 			"/>
			<polyline class="st24" points="8,1006 80,1006.06 80,965 			"/>
			<circle class="st23" cx="62.75" cy="952.75" r="4.75"/>
			<circle class="st23" cx="79.75" cy="958.75" r="4.75"/>
		</g>
		<g>
			<polyline class="st24" points="4.5,974.85 -53.5,975 -53.5,949 			"/>
			<polyline class="st24" points="1.5,996 -70.5,996.06 -70.5,955 			"/>
			<circle class="st23" cx="-53.25" cy="942.75" r="4.75"/>
			<circle class="st23" cx="-70.25" cy="948.75" r="4.75"/>
		</g>
		<g>
			<polyline class="st24" points="8,940 41,940 51,930 80,930 			"/>
			<circle class="st23" cx="86.75" cy="929.75" r="4.75"/>
			<polyline class="st24" points="8,918 41,918 51,908 80,908 			"/>
			<circle class="st23" cx="86.75" cy="907.75" r="4.75"/>
		</g>
		<g>
			<polyline class="st24" points="3.5,913 -29.5,913 -39.5,903 -68.5,903 			"/>
			<circle class="st23" cx="-75.25" cy="902.75" r="4.75"/>
			<polyline class="st24" points="3.5,890 -29.5,890 -39.5,880 -85,880 			"/>
			<circle class="st23" cx="-91.25" cy="879.75" r="4.75"/>
		</g>
		<g>
			<circle class="st23" cx="107.75" cy="867.75" r="4.75"/>
			<circle class="st23" cx="95.75" cy="838.75" r="4.75"/>
			<circle class="st23" cx="84.75" cy="820.75" r="4.75"/>
			<line class="st24" x1="7.5" y1="868.41" x2="101.5" y2="868.41"/>
			<polyline class="st24" points="7,851.9 83.5,851.9 91.7,843.7 			"/>
			<polyline class="st24" points="7,834.06 71.5,834.06 80.28,825.28 			"/>
		</g>
		<g>
			<g>
				<circle class="st23" cx="-73.75" cy="810.75" r="4.75"/>
				<circle class="st23" cx="-62.75" cy="779.75" r="4.75"/>
				<circle class="st23" cx="-51.75" cy="759.75" r="4.75"/>
				<line class="st24" x1="5" y1="811.41" x2="-67.5" y2="811.41"/>
				<polyline class="st24" points="5,792.9 -50.5,792.9 -58.7,784.7 				"/>
				<polyline class="st24" points="-47.28,764.28 -38.5,773.06 5,773.06 				"/>
			</g>
		</g>
	</g>
	<g>
		<path class="st13" d="M1156,1061c0,0,126-88,67-233c-33-75-112-174-112-174h-4c0,0-79.27,99-112.27,174c-59,145,67,233,67,233"/>
		<g>
			<circle class="st14" cx="1109" cy="1046" r="17.5"/>
			<line class="st14" x1="1108.5" y1="1028.5" x2="1108.5" y2="708.5"/>
			<circle class="st15" cx="1108.75" cy="701.75" r="4.75"/>
		</g>
		<g>
			<polyline class="st16" points="1109,983.85 1167,984 1167,958 			"/>
			<polyline class="st16" points="1112,1005 1184,1005.06 1184,964 			"/>
			<circle class="st15" cx="1166.75" cy="951.75" r="4.75"/>
			<circle class="st15" cx="1183.75" cy="957.75" r="4.75"/>
		</g>
		<g>
			<polyline class="st16" points="1108.5,973.85 1050.5,974 1050.5,948 			"/>
			<polyline class="st16" points="1105.5,995 1033.5,995.06 1033.5,954 			"/>
			<circle class="st15" cx="1050.75" cy="941.75" r="4.75"/>
			<circle class="st15" cx="1033.75" cy="947.75" r="4.75"/>
		</g>
		<g>
			<polyline class="st16" points="1112,939 1145,939 1155,929 1184,929 			"/>
			<circle class="st15" cx="1190.75" cy="928.75" r="4.75"/>
			<polyline class="st16" points="1112,917 1145,917 1155,907 1184,907 			"/>
			<circle class="st15" cx="1190.75" cy="906.75" r="4.75"/>
		</g>
		<g>
			<polyline class="st16" points="1107.5,912 1074.5,912 1064.5,902 1035.5,902 			"/>
			<circle class="st15" cx="1028.75" cy="901.75" r="4.75"/>
			<polyline class="st16" points="1107.5,889 1074.5,889 1064.5,879 1019,879 			"/>
			<circle class="st15" cx="1012.75" cy="878.75" r="4.75"/>
		</g>
		<g>
			<circle class="st15" cx="1211.75" cy="866.75" r="4.75"/>
			<circle class="st15" cx="1199.75" cy="837.75" r="4.75"/>
			<circle class="st15" cx="1188.75" cy="819.75" r="4.75"/>
			<line class="st16" x1="1111.5" y1="867.41" x2="1205.5" y2="867.41"/>
			<polyline class="st16" points="1111,850.9 1187.5,850.9 1195.7,842.7 			"/>
			<polyline class="st16" points="1111,833.06 1175.5,833.06 1184.28,824.28 			"/>
		</g>
		<g>
			<g>
				<circle class="st15" cx="1030.25" cy="809.75" r="4.75"/>
				<circle class="st15" cx="1041.25" cy="778.75" r="4.75"/>
				<circle class="st15" cx="1052.25" cy="758.75" r="4.75"/>
				<line class="st16" x1="1109" y1="810.41" x2="1036.5" y2="810.41"/>
				<polyline class="st16" points="1109,791.9 1053.5,791.9 1045.3,783.7 				"/>
				<polyline class="st16" points="1056.72,763.28 1065.5,772.06 1109,772.06 				"/>
			</g>
		</g>
	</g>
	<g>
		<path class="st17" d="M600,1060c0,0,126-88,67-233c-33-75-112-174-112-174h-4c0,0-79.27,99-112.27,174c-59,145,67,233,67,233"/>
		<g>
			<circle class="st18" cx="553" cy="1045" r="17.5"/>
			<line class="st18" x1="552.5" y1="1027.5" x2="552.5" y2="707.5"/>
			<circle class="st19" cx="552.75" cy="700.75" r="4.75"/>
		</g>
		<g>
			<polyline class="st20" points="553,982.85 611,983 611,957 			"/>
			<polyline class="st20" points="556,1004 628,1004.06 628,963 			"/>
			<circle class="st19" cx="610.75" cy="950.75" r="4.75"/>
			<circle class="st19" cx="627.75" cy="956.75" r="4.75"/>
		</g>
		<g>
			<polyline class="st20" points="552.5,972.85 494.5,973 494.5,947 			"/>
			<polyline class="st20" points="549.5,994 477.5,994.06 477.5,953 			"/>
			<circle class="st19" cx="494.75" cy="940.75" r="4.75"/>
			<circle class="st19" cx="477.75" cy="946.75" r="4.75"/>
		</g>
		<g>
			<polyline class="st20" points="556,938 589,938 599,928 628,928 			"/>
			<circle class="st19" cx="634.75" cy="927.75" r="4.75"/>
			<polyline class="st20" points="556,916 589,916 599,906 628,906 			"/>
			<circle class="st19" cx="634.75" cy="905.75" r="4.75"/>
		</g>
		<g>
			<polyline class="st20" points="551.5,911 518.5,911 508.5,901 479.5,901 			"/>
			<circle class="st19" cx="472.75" cy="900.75" r="4.75"/>
			<polyline class="st20" points="551.5,888 518.5,888 508.5,878 463,878 			"/>
			<circle class="st19" cx="456.75" cy="877.75" r="4.75"/>
		</g>
		<g>
			<circle class="st19" cx="655.75" cy="865.75" r="4.75"/>
			<circle class="st19" cx="643.75" cy="836.75" r="4.75"/>
			<circle class="st19" cx="632.75" cy="818.75" r="4.75"/>
			<line class="st20" x1="555.5" y1="866.41" x2="649.5" y2="866.41"/>
			<polyline class="st20" points="555,849.9 631.5,849.9 639.7,841.7 			"/>
			<polyline class="st20" points="555,832.06 619.5,832.06 628.28,823.28 			"/>
		</g>
		<g>
			<g>
				<circle class="st19" cx="474.25" cy="808.75" r="4.75"/>
				<circle class="st19" cx="485.25" cy="777.75" r="4.75"/>
				<circle class="st19" cx="496.25" cy="757.75" r="4.75"/>
				<line class="st20" x1="553" y1="809.41" x2="480.5" y2="809.41"/>
				<polyline class="st20" points="553,790.9 497.5,790.9 489.3,782.7 				"/>
				<polyline class="st20" points="500.72,762.28 509.5,771.06 553,771.06 				"/>
			</g>
		</g>
	</g>
	<path class="st0" d="M2674.44,119h-355.87c-30.69,0-55.56-24.88-55.56-55.56v-355.87c0-30.69,24.88-55.56,55.56-55.56h355.87
		c30.69,0,55.56,24.88,55.56,55.56V63.44C2730,94.12,2705.12,119,2674.44,119z"/>
	<path class="st0" d="M3221.44,117h-355.87c-30.69,0-55.56-24.88-55.56-55.56v-355.87c0-30.69,24.88-55.56,55.56-55.56h355.87
		c30.69,0,55.56,24.88,55.56,55.56V61.44C3277,92.12,3252.12,117,3221.44,117z"/>
	<path class="st1" d="M1988,89c0,0,126-88,67-233c-33-75-112-174-112-174h-4c0,0-79.27,99-112.27,174c-59,145,67,233,67,233"/>
	<g>
		<circle class="st2" cx="1941" cy="74" r="17.5"/>
		<line class="st2" x1="1940.5" y1="56.5" x2="1940.5" y2="-263.5"/>
		<circle class="st3" cx="1940.75" cy="-270.25" r="4.75"/>
	</g>
	<g>
		<polyline class="st4" points="1941,11.85 1999,12 1999,-14 		"/>
		<polyline class="st4" points="1944,33 2016,33.06 2016,-8 		"/>
		<circle class="st3" cx="1998.75" cy="-20.25" r="4.75"/>
		<circle class="st3" cx="2015.75" cy="-14.25" r="4.75"/>
	</g>
	<g>
		<polyline class="st4" points="1940.5,1.85 1882.5,2 1882.5,-24 		"/>
		<polyline class="st4" points="1937.5,23 1865.5,23.06 1865.5,-18 		"/>
		<circle class="st3" cx="1882.75" cy="-30.25" r="4.75"/>
		<circle class="st3" cx="1865.75" cy="-24.25" r="4.75"/>
	</g>
	<g>
		<polyline class="st4" points="1944,-33 1977,-33 1987,-43 2016,-43 		"/>
		<circle class="st3" cx="2022.75" cy="-43.25" r="4.75"/>
		<polyline class="st4" points="1944,-55 1977,-55 1987,-65 2016,-65 		"/>
		<circle class="st3" cx="2022.75" cy="-65.25" r="4.75"/>
	</g>
	<g>
		<polyline class="st4" points="1939.5,-60 1906.5,-60 1896.5,-70 1867.5,-70 		"/>
		<circle class="st3" cx="1860.75" cy="-70.25" r="4.75"/>
		<polyline class="st4" points="1939.5,-83 1906.5,-83 1896.5,-93 1851,-93 		"/>
		<circle class="st3" cx="1844.75" cy="-93.25" r="4.75"/>
	</g>
	<g>
		<circle class="st3" cx="2043.75" cy="-105.25" r="4.75"/>
		<circle class="st3" cx="2031.75" cy="-134.25" r="4.75"/>
		<circle class="st3" cx="2020.75" cy="-152.25" r="4.75"/>
		<line class="st4" x1="1943.5" y1="-104.59" x2="2037.5" y2="-104.59"/>
		<polyline class="st4" points="1943,-121.1 2019.5,-121.1 2027.7,-129.3 		"/>
		<polyline class="st4" points="1943,-138.94 2007.5,-138.94 2016.28,-147.72 		"/>
	</g>
	<g>
		<g>
			<circle class="st3" cx="1862.25" cy="-162.25" r="4.75"/>
			<circle class="st3" cx="1873.25" cy="-193.25" r="4.75"/>
			<circle class="st3" cx="1884.25" cy="-213.25" r="4.75"/>
			<line class="st4" x1="1941" y1="-161.59" x2="1868.5" y2="-161.59"/>
			<polyline class="st4" points="1941,-180.1 1885.5,-180.1 1877.3,-188.3 			"/>
			<polyline class="st4" points="1888.72,-208.72 1897.5,-199.94 1941,-199.94 			"/>
		</g>
	</g>
	<path class="st13" d="M3092,88c0,0,126-88,67-233c-33-75-112-174-112-174h-4c0,0-79.27,99-112.27,174c-59,145,67,233,67,233"/>
	<g>
		<circle class="st14" cx="3045" cy="73" r="17.5"/>
		<line class="st14" x1="3044.5" y1="55.5" x2="3044.5" y2="-264.5"/>
		<circle class="st15" cx="3044.75" cy="-271.25" r="4.75"/>
	</g>
	<g>
		<polyline class="st16" points="3045,10.85 3103,11 3103,-15 		"/>
		<polyline class="st16" points="3048,32 3120,32.06 3120,-9 		"/>
		<circle class="st15" cx="3102.75" cy="-21.25" r="4.75"/>
		<circle class="st15" cx="3119.75" cy="-15.25" r="4.75"/>
	</g>
	<g>
		<polyline class="st16" points="3044.5,0.85 2986.5,1 2986.5,-25 		"/>
		<polyline class="st16" points="3041.5,22 2969.5,22.06 2969.5,-19 		"/>
		<circle class="st15" cx="2986.75" cy="-31.25" r="4.75"/>
		<circle class="st15" cx="2969.75" cy="-25.25" r="4.75"/>
	</g>
	<g>
		<polyline class="st16" points="3048,-34 3081,-34 3091,-44 3120,-44 		"/>
		<circle class="st15" cx="3126.75" cy="-44.25" r="4.75"/>
		<polyline class="st16" points="3048,-56 3081,-56 3091,-66 3120,-66 		"/>
		<circle class="st15" cx="3126.75" cy="-66.25" r="4.75"/>
	</g>
	<g>
		<polyline class="st16" points="3043.5,-61 3010.5,-61 3000.5,-71 2971.5,-71 		"/>
		<circle class="st15" cx="2964.75" cy="-71.25" r="4.75"/>
		<polyline class="st16" points="3043.5,-84 3010.5,-84 3000.5,-94 2955,-94 		"/>
		<circle class="st15" cx="2948.75" cy="-94.25" r="4.75"/>
	</g>
	<g>
		<circle class="st15" cx="3147.75" cy="-106.25" r="4.75"/>
		<circle class="st15" cx="3135.75" cy="-135.25" r="4.75"/>
		<circle class="st15" cx="3124.75" cy="-153.25" r="4.75"/>
		<line class="st16" x1="3047.5" y1="-105.59" x2="3141.5" y2="-105.59"/>
		<polyline class="st16" points="3047,-122.1 3123.5,-122.1 3131.7,-130.3 		"/>
		<polyline class="st16" points="3047,-139.94 3111.5,-139.94 3120.28,-148.72 		"/>
	</g>
	<g>
		<g>
			<circle class="st15" cx="2966.25" cy="-163.25" r="4.75"/>
			<circle class="st15" cx="2977.25" cy="-194.25" r="4.75"/>
			<circle class="st15" cx="2988.25" cy="-214.25" r="4.75"/>
			<line class="st16" x1="3045" y1="-162.59" x2="2972.5" y2="-162.59"/>
			<polyline class="st16" points="3045,-181.1 2989.5,-181.1 2981.3,-189.3 			"/>
			<polyline class="st16" points="2992.72,-209.72 3001.5,-200.94 3045,-200.94 			"/>
		</g>
	</g>
	<path class="st17" d="M2536,87c0,0,126-88,67-233c-33-75-112-174-112-174h-4c0,0-79.27,99-112.27,174c-59,145,67,233,67,233"/>
	<g>
		<circle class="st18" cx="2489" cy="72" r="17.5"/>
		<line class="st18" x1="2488.5" y1="54.5" x2="2488.5" y2="-265.5"/>
		<circle class="st19" cx="2488.75" cy="-272.25" r="4.75"/>
	</g>
	<g>
		<polyline class="st20" points="2489,9.85 2547,10 2547,-16 		"/>
		<polyline class="st20" points="2492,31 2564,31.06 2564,-10 		"/>
		<circle class="st19" cx="2546.75" cy="-22.25" r="4.75"/>
		<circle class="st19" cx="2563.75" cy="-16.25" r="4.75"/>
	</g>
	<g>
		<polyline class="st20" points="2488.5,-0.15 2430.5,0 2430.5,-26 		"/>
		<polyline class="st20" points="2485.5,21 2413.5,21.06 2413.5,-20 		"/>
		<circle class="st19" cx="2430.75" cy="-32.25" r="4.75"/>
		<circle class="st19" cx="2413.75" cy="-26.25" r="4.75"/>
	</g>
	<g>
		<polyline class="st20" points="2492,-35 2525,-35 2535,-45 2564,-45 		"/>
		<circle class="st19" cx="2570.75" cy="-45.25" r="4.75"/>
		<polyline class="st20" points="2492,-57 2525,-57 2535,-67 2564,-67 		"/>
		<circle class="st19" cx="2570.75" cy="-67.25" r="4.75"/>
	</g>
	<g>
		<polyline class="st20" points="2487.5,-62 2454.5,-62 2444.5,-72 2415.5,-72 		"/>
		<circle class="st19" cx="2408.75" cy="-72.25" r="4.75"/>
		<polyline class="st20" points="2487.5,-85 2454.5,-85 2444.5,-95 2399,-95 		"/>
		<circle class="st19" cx="2392.75" cy="-95.25" r="4.75"/>
	</g>
	<g>
		<circle class="st19" cx="2591.75" cy="-107.25" r="4.75"/>
		<circle class="st19" cx="2579.75" cy="-136.25" r="4.75"/>
		<circle class="st19" cx="2568.75" cy="-154.25" r="4.75"/>
		<line class="st20" x1="2491.5" y1="-106.59" x2="2585.5" y2="-106.59"/>
		<polyline class="st20" points="2491,-123.1 2567.5,-123.1 2575.7,-131.3 		"/>
		<polyline class="st20" points="2491,-140.94 2555.5,-140.94 2564.28,-149.72 		"/>
	</g>
	<g>
		<g>
			<circle class="st19" cx="2410.25" cy="-164.25" r="4.75"/>
			<circle class="st19" cx="2421.25" cy="-195.25" r="4.75"/>
			<circle class="st19" cx="2432.25" cy="-215.25" r="4.75"/>
			<line class="st20" x1="2489" y1="-163.59" x2="2416.5" y2="-163.59"/>
			<polyline class="st20" points="2489,-182.1 2433.5,-182.1 2425.3,-190.3 			"/>
			<polyline class="st20" points="2436.72,-210.72 2445.5,-201.94 2489,-201.94 			"/>
		</g>
	</g>
</g>
<g id="Camada_7">
	<path class="st25" d="M-997.45,1023h-449.05c-29.72,0-53.82-24.09-53.82-53.82V496.82c0-29.72,24.09-53.82,53.82-53.82h449.05
		c29.72,0,53.82,24.09,53.82,53.82v472.37C-943.63,998.91-967.73,1023-997.45,1023z"/>
	<g>
		<path class="st26" d="M-1160.03,958c0,0,173.67-100.32,92.35-265.63c-45.49-85.5-154.38-198.37-154.38-198.37h-5.51
			c0,0-109.27,112.86-154.75,198.37c-81.32,165.31,92.35,265.63,92.35,265.63"/>
		<g>
			<circle class="st27" cx="-1225" cy="941" r="17.5"/>
			<line class="st28" x1="-1224.5" y1="918.5" x2="-1224.5" y2="598.5"/>
		</g>
		<g>
			<polyline class="st29" points="-1223,878 -1151,878.06 -1151,837 			"/>
			<circle class="st29" cx="-1151.25" cy="830.75" r="4.75"/>
		</g>
		<polyline class="st29" points="-1224,846 -1296,846.06 -1296,805 		"/>
		<g>
			<polyline class="st29" points="-1224.5,753 -1257.5,753 -1267.5,733.91 -1296.5,733.91 			"/>
			<polyline class="st29" points="-1224.5,709.09 -1257.5,709.09 -1267.5,690 -1296,690 			"/>
		</g>
		<circle class="st29" cx="-1296.25" cy="797.75" r="4.75"/>
		<g>
			<polyline class="st29" points="-1224,777 -1191,777 -1181,757.91 -1152,757.91 			"/>
			<polyline class="st29" points="-1224,733.09 -1191,733.09 -1181,714 -1151,714 			"/>
		</g>
	</g>
	<circle class="st30" cx="-1147.25" cy="758.75" r="4.75"/>
	<circle class="st30" cx="-1147.25" cy="713.75" r="4.75"/>
	<circle class="st30" cx="-1302.25" cy="733.75" r="4.75"/>
	<circle class="st30" cx="-1302.25" cy="689.75" r="4.75"/>
</g>
</svg>
